<svg viewBox="0 0 24.5767 21.6084" xmlns="http://www.w3.org/2000/svg" xmlns:xlink="http://www.w3.org/1999/xlink" width="24.576660" height="21.608398" fill="none" customFrame="#000000">
	<defs>
		<clipPath id="clipPath_114">
			<rect width="14.336403" height="12.604972" x="5.120117" y="4.501953" fill="rgb(255,255,255)" />
		</clipPath>
		<clipPath id="clipPath_115">
			<rect width="14.336403" height="12.604972" x="5.120117" y="4.501953" fill="rgb(255,255,255)" />
		</clipPath>
		<clipPath id="clipPath_116">
			<rect width="14.336403" height="12.604972" x="5.120117" y="4.501953" fill="rgb(255,255,255)" />
		</clipPath>
	</defs>
	<g id="Instagram">
		<ellipse id="Ellipse 9" rx="12.288345" ry="10.804261" cx="12.2883453" cy="10.8042612" fill="rgb(255,180,0)" />
		<g id="Icons-instagram" customFrame="url(#clipPath_114)">
			<rect id="Icons-instagram" width="14.336403" height="12.604972" x="5.120117" y="4.501953" fill="rgb(255,255,255)" fill-opacity="0" />
			<g id="Icons-instagram" customFrame="url(#clipPath_115)">
				<rect id="Icons-instagram" width="14.336403" height="12.604972" x="5.120117" y="4.501953" fill="rgb(255,255,255)" fill-opacity="0" />
				<g id="Icons-instagram" clip-path="url(#clipPath_116)" customFrame="url(#clipPath_116)">
					<rect id="Icons-instagram" width="14.336403" height="12.604972" x="5.120117" y="4.501953" fill="rgb(255,255,255)" fill-opacity="0" />
					<path id="Vector" d="M5.12012 4.50195L19.4565 4.50195L19.4565 17.1069L5.12012 17.1069L5.12012 4.50195Z" fill-rule="nonzero" />
					<path id="Vector" d="M12.2884 5.55273C13.9114 5.55273 14.1139 5.55799 14.7507 5.58425C15.3869 5.61051 15.82 5.69822 16.2011 5.82847C16.5953 5.96187 16.9275 6.14254 17.2596 6.43403C17.5633 6.69658 17.7984 7.01417 17.9483 7.3647C18.0959 7.69926 18.1962 8.08056 18.2261 8.6399C18.2542 9.19977 18.2619 9.37782 18.2619 10.8048C18.2619 12.2318 18.256 12.4098 18.2261 12.9697C18.1962 13.5291 18.0959 13.9098 17.9483 14.2449C17.7988 14.5956 17.5637 14.9133 17.2596 15.1756C16.9609 15.4426 16.5997 15.6492 16.2011 15.7811C15.8206 15.9109 15.3869 15.9991 14.7507 16.0254C14.1139 16.0501 13.9114 16.0569 12.2884 16.0569C10.6654 16.0569 10.4629 16.0516 9.82617 16.0254C9.18999 15.9991 8.75691 15.9109 8.3758 15.7811C7.97696 15.6496 7.61569 15.4429 7.3173 15.1756C7.01349 14.9131 6.77844 14.5955 6.62855 14.2449C6.48041 13.9104 6.38065 13.5291 6.35078 12.9697C6.32271 12.4098 6.31494 12.2318 6.31494 10.8048C6.31494 9.37782 6.32091 9.19977 6.35078 8.6399C6.38065 8.08003 6.48041 7.69978 6.62855 7.3647C6.77803 7.01396 7.01313 6.69628 7.3173 6.43403C7.61577 6.16682 7.97703 5.96015 8.3758 5.82847C8.75691 5.69822 9.18939 5.61051 9.82617 5.58425C10.4629 5.55956 10.6654 5.55273 12.2884 5.55273ZM12.2884 8.17877C11.4963 8.17877 10.7366 8.45544 10.1765 8.94792C9.61637 9.4404 9.30169 10.1083 9.30169 10.8048C9.30169 11.5013 9.61637 12.1692 10.1765 12.6617C10.7366 13.1542 11.4963 13.4308 12.2884 13.4308C13.0806 13.4308 13.8403 13.1542 14.4004 12.6617C14.9605 12.1692 15.2752 11.5013 15.2752 10.8048C15.2752 10.1083 14.9605 9.4404 14.4004 8.94792C13.8403 8.45544 13.0806 8.17877 12.2884 8.17877ZM16.1712 8.04747C16.1712 7.87335 16.0925 7.70637 15.9525 7.58325C15.8125 7.46013 15.6226 7.39096 15.4245 7.39096C15.2265 7.39096 15.0366 7.46013 14.8965 7.58325C14.7565 7.70637 14.6778 7.87335 14.6778 8.04747C14.6778 8.22159 14.7565 8.38857 14.8965 8.51169C15.0366 8.63481 15.2265 8.70398 15.4245 8.70398C15.6226 8.70398 15.8125 8.63481 15.9525 8.51169C16.0925 8.38857 16.1712 8.22159 16.1712 8.04747ZM12.2884 9.22919C12.7637 9.22919 13.2195 9.39519 13.5556 9.69067C13.8917 9.98616 14.0805 10.3869 14.0805 10.8048C14.0805 11.2227 13.8917 11.6235 13.5556 11.9189C13.2195 12.2144 12.7637 12.3804 12.2884 12.3804C11.8132 12.3804 11.3573 12.2144 11.0213 11.9189C10.6852 11.6235 10.4964 11.2227 10.4964 10.8048C10.4964 10.3869 10.6852 9.98616 11.0213 9.69067C11.3573 9.39519 11.8132 9.22919 12.2884 9.22919Z" fill="rgb(43,43,43)" fill-rule="nonzero" />
				</g>
			</g>
		</g>
	</g>
</svg>
