<svg viewBox="0 0 24.5767 21.6084" xmlns="http://www.w3.org/2000/svg" xmlns:xlink="http://www.w3.org/1999/xlink" width="24.576660" height="21.608398" fill="none" customFrame="#000000">
	<defs>
		<clipPath id="clipPath_117">
			<rect width="14.336403" height="12.604972" x="5.120117" y="4.501953" fill="rgb(255,255,255)" />
		</clipPath>
		<clipPath id="clipPath_118">
			<rect width="14.336403" height="12.604972" x="5.120117" y="4.501953" fill="rgb(255,255,255)" />
		</clipPath>
		<clipPath id="clipPath_119">
			<rect width="14.336403" height="12.604972" x="5.120117" y="4.501953" fill="rgb(255,255,255)" />
		</clipPath>
	</defs>
	<g id="Twitter">
		<ellipse id="Ellipse 9" rx="12.288345" ry="10.804261" cx="12.2883453" cy="10.8042612" fill="rgb(255,180,0)" />
		<g id="Icons-twitter" customFrame="url(#clipPath_117)">
			<rect id="Icons-twitter" width="14.336403" height="12.604972" x="5.120117" y="4.501953" fill="rgb(255,255,255)" fill-opacity="0" />
			<g id="Icons-twitter" customFrame="url(#clipPath_118)">
				<rect id="Icons-twitter" width="14.336403" height="12.604972" x="5.120117" y="4.501953" fill="rgb(255,255,255)" fill-opacity="0" />
				<g id="Icons-twitter" clip-path="url(#clipPath_119)" customFrame="url(#clipPath_119)">
					<rect id="Icons-twitter" width="14.336403" height="12.604972" x="5.120117" y="4.501953" fill="rgb(255,255,255)" fill-opacity="0" />
					<path id="Vector" d="M5.12012 4.50195L19.4565 4.50195L19.4565 17.1069L5.12012 17.1069L5.12012 4.50195Z" fill-rule="nonzero" />
					<path id="Vector" d="M18.3589 7.47277C17.9029 7.65013 17.4192 7.76661 16.9241 7.81836C17.446 7.5439 17.8366 7.11196 18.0232 6.60303C17.5334 6.85933 16.9963 7.03895 16.4366 7.13611C16.0607 6.78243 15.5623 6.54786 15.0191 6.46888C14.4758 6.3899 13.9182 6.47093 13.4327 6.69938C12.9473 6.92782 12.5612 7.29088 12.3347 7.73212C12.1081 8.17335 12.0537 8.66803 12.1799 9.13925C11.1866 9.09548 10.2148 8.86852 9.32773 8.47312C8.44064 8.07771 7.65804 7.52269 7.03075 6.8441C6.8087 7.17942 6.69202 7.5606 6.69265 7.94861C6.69265 8.71016 7.13349 9.38295 7.80372 9.77686C7.40708 9.76588 7.01918 9.6717 6.67234 9.50217L6.67234 9.52948C6.67245 10.0367 6.87207 10.5282 7.23734 10.9208C7.6026 11.3134 8.11104 11.5828 8.67645 11.6834C8.30825 11.7711 7.92218 11.784 7.54745 11.7212C7.70687 12.1577 8.01757 12.5396 8.43607 12.8131C8.85456 13.0867 9.35989 13.2384 9.8813 13.2469C9.36309 13.6047 8.76974 13.8693 8.13517 14.0253C7.50061 14.1814 6.83728 14.226 6.18311 14.1566C7.32506 14.8023 8.6544 15.1451 10.0121 15.1439C14.6075 15.1439 17.1206 11.7968 17.1206 8.89398C17.1206 8.79945 17.1176 8.70386 17.1128 8.61037C17.602 8.29954 18.0241 7.91448 18.3595 7.4733L18.3589 7.47277Z" fill="rgb(43,43,43)" fill-rule="nonzero" />
				</g>
			</g>
		</g>
	</g>
</svg>
